# xmcd
#
# Track frame offsets:
#	150
#	19215
#	39247
#	55220
#	75232
#	92650
#	108977
#	120790
#	146070
#	160717
#	179482
#	195242
#
# Disc length: 2813 seconds
#
# Revision: 1
# Processed by: cddbd v1.5.1PL2 Copyright (c) Steve Scherf et al.
# Submitted via: audiograbber 1.83.01
#
DISCID=870afb0c
DTITLE=Chris Curtis Band - From Night to Night
DYEAR=1997
DGENRE=Rock and Roll
TTITLE0=Home
TTITLE1=(What A Damn Good) Saturday Night 
TTITLE2=Mr. Blue 
TTITLE3=I Guess My World Would Fall Apart 
TTITLE4=Frances 
TTITLE5=That's All I Want 
TTITLE6=Cryin' Last Night 
TTITLE7=Slow Dancin' 
TTITLE8=Splits From My Heart 
TTITLE9=Lookin' Out For Mary 
TTITLE10=Now It Hurts Me Too 
TTITLE11=No More Lonely, Lonely Nights 
EXTD=
EXTT0=
EXTT1=
EXTT2=
EXTT3=
EXTT4=
EXTT5=
EXTT6=
EXTT7=
EXTT8=
EXTT9=
EXTT10=
EXTT11=
PLAYORDER=
